<svg width="727" height="309" viewBox="0 0 727 309" fill="none" xmlns="http://www.w3.org/2000/svg">
<mask id="path-1-inside-1_0_1" fill="white">
<path fill-rule="evenodd" clip-rule="evenodd" d="M369.426 132.141C344.221 118.87 306.541 110.524 264.482 110.69C188.823 110.987 127.646 138.714 127.838 172.619C128.031 206.525 189.52 233.77 265.179 233.472C318.959 233.261 365.422 219.19 387.727 198.892C364.853 236.418 288.283 264 197.347 264C88.3554 264 0 224.377 0 175.5C0 126.623 88.3554 87 197.347 87C271.21 87 335.596 105.198 369.426 132.141Z"/>
</mask>
<path fill-rule="evenodd" clip-rule="evenodd" d="M369.426 132.141C344.221 118.87 306.541 110.524 264.482 110.69C188.823 110.987 127.646 138.714 127.838 172.619C128.031 206.525 189.52 233.77 265.179 233.472C318.959 233.261 365.422 219.19 387.727 198.892C364.853 236.418 288.283 264 197.347 264C88.3554 264 0 224.377 0 175.5C0 126.623 88.3554 87 197.347 87C271.21 87 335.596 105.198 369.426 132.141Z" fill="#57C3EF"/>
<path d="M264.482 110.69L264.486 111.69L264.482 110.69ZM369.426 132.141L368.961 133.025L370.049 131.358L369.426 132.141ZM127.838 172.619L126.838 172.625L126.838 172.625L127.838 172.619ZM265.179 233.472L265.182 234.472L265.179 233.472ZM387.727 198.892L388.581 199.413L387.054 198.153L387.727 198.892ZM264.486 111.69C306.431 111.525 343.939 119.852 368.961 133.025L369.892 131.256C344.503 117.889 306.65 109.524 264.478 109.69L264.486 111.69ZM128.838 172.614C128.792 164.46 132.431 156.605 139.199 149.364C145.972 142.117 155.842 135.531 168.129 129.962C192.7 118.826 226.764 111.838 264.486 111.69L264.478 109.69C226.541 109.839 192.187 116.863 167.303 128.141C154.862 133.779 144.745 140.501 137.738 147.998C130.725 155.501 126.788 163.826 126.838 172.625L128.838 172.614ZM265.175 232.472C227.453 232.62 193.311 225.901 168.614 214.958C156.264 209.486 146.319 202.977 139.463 195.783C132.612 188.595 128.884 180.768 128.838 172.614L126.838 172.625C126.888 181.424 130.918 189.717 138.015 197.163C145.107 204.605 155.3 211.246 167.803 216.786C192.813 227.867 227.246 234.621 265.182 234.472L265.175 232.472ZM387.054 198.153C376.056 208.161 359.023 216.696 337.979 222.754C316.95 228.807 291.982 232.367 265.175 232.472L265.182 234.472C292.155 234.366 317.308 230.785 338.532 224.676C359.742 218.57 377.093 209.921 388.4 199.632L387.054 198.153ZM386.873 198.372C375.616 216.84 351.02 233.016 317.732 244.574C284.484 256.118 242.72 263 197.347 263V265C242.909 265 284.899 258.091 318.388 246.463C351.838 234.849 376.964 218.47 388.581 199.413L386.873 198.372ZM197.347 263C142.959 263 93.7676 253.112 58.2109 237.166C40.4314 229.193 26.1046 219.725 16.236 209.262C6.37242 198.804 1 187.397 1 175.5H-1C-1 188.042 4.672 199.916 14.7811 210.634C24.8851 221.347 39.4591 230.949 57.3925 238.991C93.2615 255.077 142.744 265 197.347 265V263ZM1 175.5C1 163.603 6.37242 152.196 16.236 141.738C26.1046 131.275 40.4314 121.807 58.2109 113.834C93.7676 97.8882 142.959 88 197.347 88V86C142.744 86 93.2615 95.9232 57.3925 112.009C39.4591 120.051 24.8851 129.653 14.7811 140.366C4.672 151.084 -1 162.958 -1 175.5H1ZM197.347 88C271.1 88 335.223 106.179 368.803 132.923L370.049 131.358C335.968 104.216 271.32 86 197.347 86V88Z" fill="#EFC1E5" mask="url(#path-1-inside-1_0_1)"/>
<mask id="path-3-inside-2_0_1" fill="white">
<path fill-rule="evenodd" clip-rule="evenodd" d="M515.179 15.7686C494.107 35.867 480.957 65.8019 481.422 99.1243C482.258 159.067 526.832 207.272 580.98 206.794C635.128 206.315 678.346 157.334 677.509 97.3911C676.915 54.7823 654.222 18.1041 621.699 0.626315C681.739 18.3894 726.154 78.7918 726.588 150.841C727.108 237.197 664.25 307.584 586.19 308.054C508.13 308.524 444.429 238.9 443.909 152.544C443.556 94.0211 472.311 42.8324 515.179 15.7686Z"/>
</mask>
<path fill-rule="evenodd" clip-rule="evenodd" d="M515.179 15.7686C494.107 35.867 480.957 65.8019 481.422 99.1243C482.258 159.067 526.832 207.272 580.98 206.794C635.128 206.315 678.346 157.334 677.509 97.3911C676.915 54.7823 654.222 18.1041 621.699 0.626315C681.739 18.3894 726.154 78.7918 726.588 150.841C727.108 237.197 664.25 307.584 586.19 308.054C508.13 308.524 444.429 238.9 443.909 152.544C443.556 94.0211 472.311 42.8324 515.179 15.7686Z" fill="#EFC1E5"/>
<path d="M481.422 99.1243L482.422 99.1104L482.422 99.1104L481.422 99.1243ZM515.179 15.7686L515.87 16.4923L514.646 14.9231L515.179 15.7686ZM580.98 206.794L580.988 207.793L580.988 207.793L580.98 206.794ZM677.509 97.3911L676.51 97.405L676.51 97.405L677.509 97.3911ZM621.699 0.626315L621.982 -0.332599L621.225 1.50718L621.699 0.626315ZM482.422 99.1104C481.961 66.0589 495.003 36.3935 515.87 16.4923L514.489 15.045C493.21 35.3404 479.954 65.545 480.422 99.1383L482.422 99.1104ZM580.971 205.794C527.466 206.266 483.252 158.6 482.422 99.1104L480.422 99.1383C481.265 159.534 526.198 208.278 580.988 207.793L580.971 205.794ZM676.51 97.405C677.339 156.892 634.471 205.321 580.971 205.794L580.988 207.793C635.785 207.309 679.352 157.775 678.509 97.3771L676.51 97.405ZM621.225 1.50718C653.409 18.8029 675.92 55.1374 676.51 97.405L678.509 97.3771C677.91 54.4272 655.034 17.4053 622.172 -0.254546L621.225 1.50718ZM621.415 1.58523C680.989 19.2104 725.156 79.1913 725.588 150.847L727.588 150.835C727.152 78.3922 682.489 17.5684 621.982 -0.332599L621.415 1.58523ZM725.588 150.847C726.105 236.749 663.599 306.588 586.184 307.054L586.196 309.054C664.901 308.58 728.111 237.646 727.588 150.835L725.588 150.847ZM586.184 307.054C508.769 307.521 445.426 238.439 444.909 152.538L442.909 152.55C443.432 239.361 507.492 309.528 586.196 309.054L586.184 307.054ZM444.909 152.538C444.558 94.3422 473.152 43.4842 515.713 16.6142L514.646 14.9231C471.47 42.1807 442.554 93.7 442.909 152.55L444.909 152.538Z" fill="#57C3EF" mask="url(#path-3-inside-2_0_1)"/>
<circle cx="418" cy="221" r="29.5" fill="#FFD966" stroke="black"/>
<path d="M309.5 175C309.5 177.992 307.973 180.895 305.1 183.588C302.226 186.282 298.041 188.731 292.828 190.799C282.404 194.932 267.969 197.5 252 197.5C236.031 197.5 221.596 194.932 211.172 190.799C205.959 188.731 201.774 186.282 198.9 183.588C196.027 180.895 194.5 177.992 194.5 175C194.5 172.008 196.027 169.105 198.9 166.412C201.774 163.718 205.959 161.269 211.172 159.201C221.596 155.068 236.031 152.5 252 152.5C267.969 152.5 282.404 155.068 292.828 159.201C298.041 161.269 302.226 163.718 305.1 166.412C307.973 169.105 309.5 172.008 309.5 175Z" fill="black" stroke="#FFD966"/>
</svg>
